<svg width="145" height="80" viewBox="0 0 145 80" fill="none" xmlns="http://www.w3.org/2000/svg">
<path d="M0 6C0 2.68629 2.68629 0 6 0H139C142.314 0 145 2.68629 145 6V74C145 77.3137 142.314 80 139 80H6C2.68629 80 0 77.3137 0 74V6Z" fill="#F5F5F5"/>
<g filter="url(#filter0_d_2030_22901)">
<path d="M39.9762 18.9481C38.4405 18.9481 37.2822 17.0239 37.2822 14.474C37.2822 11.9242 38.4405 10 39.9762 10C41.5118 10 42.6701 11.9242 42.6701 14.474C42.6701 17.0239 41.5118 18.9481 39.9762 18.9481ZM39.9762 11.4747C39.4933 11.4747 38.7624 12.6708 38.7624 14.474C38.7624 16.2773 39.4933 17.4734 39.9762 17.4734C40.459 17.4734 41.1899 16.2773 41.1899 14.474C41.1899 12.6708 40.459 11.4747 39.9762 11.4747Z" fill="#687970"/>
<path d="M47.3248 18.9481C45.7892 18.9481 44.6309 17.0239 44.6309 14.474C44.6309 11.9242 45.7892 10 47.3248 10C48.8604 10 50.0187 11.9242 50.0187 14.474C50.0187 17.0239 48.8604 18.9481 47.3248 18.9481ZM47.3248 11.4747C46.8419 11.4747 46.1111 12.6708 46.1111 14.474C46.1111 16.2773 46.8419 17.4734 47.3248 17.4734C47.8076 17.4734 48.5385 16.2773 48.5385 14.474C48.5385 12.6708 47.8076 11.4747 47.3248 11.4747Z" fill="#687970"/>
<path d="M54.6705 18.9481C53.1349 18.9481 51.9766 17.0239 51.9766 14.474C51.9766 11.9242 53.1349 10 54.6705 10C56.2061 10 57.3644 11.9242 57.3644 14.474C57.3644 17.0239 56.2061 18.9481 54.6705 18.9481ZM54.6705 11.4747C54.1876 11.4747 53.4568 12.6708 53.4568 14.474C53.4568 16.2773 54.1876 17.4734 54.6705 17.4734C55.1533 17.4734 55.8842 16.2773 55.8842 14.474C55.8842 12.6708 55.1533 11.4747 54.6705 11.4747Z" fill="#687970"/>
<path d="M62.0181 18.9481C60.4825 18.9481 59.3242 17.0239 59.3242 14.474C59.3242 11.9242 60.4825 10 62.0181 10C63.5538 10 64.7121 11.9242 64.7121 14.474C64.7121 17.0239 63.5538 18.9481 62.0181 18.9481ZM62.0181 11.4747C61.5353 11.4747 60.8044 12.6708 60.8044 14.474C60.8044 16.2773 61.5353 17.4734 62.0181 17.4734C62.501 17.4734 63.2319 16.2773 63.2319 14.474C63.2319 12.6708 62.501 11.4747 62.0181 11.4747Z" fill="#687970"/>
<path d="M69.3668 18.9481C67.8312 18.9481 66.6729 17.0239 66.6729 14.474C66.6729 11.9242 67.8285 10 69.3668 10C70.905 10 72.0607 11.9242 72.0607 14.474C72.0607 17.0239 70.9024 18.9481 69.3668 18.9481ZM69.3668 11.4747C68.8839 11.4747 68.1531 12.6708 68.1531 14.474C68.1531 16.2773 68.8839 17.4734 69.3668 17.4734C69.8496 17.4734 70.5805 16.2773 70.5805 14.474C70.5805 12.6708 69.8496 11.4747 69.3668 11.4747Z" fill="#687970"/>
<path d="M76.7125 18.9481C75.1769 18.9481 74.0186 17.0239 74.0186 14.474C74.0186 11.9242 75.1769 10 76.7125 10C78.2481 10 79.4064 11.9242 79.4064 14.474C79.4064 17.0239 78.2481 18.9481 76.7125 18.9481ZM76.7125 11.4747C76.2296 11.4747 75.4988 12.6708 75.4988 14.474C75.4988 16.2773 76.2296 17.4734 76.7125 17.4734C77.1953 17.4734 77.9262 16.2773 77.9262 14.474C77.9262 12.6708 77.1953 11.4747 76.7125 11.4747Z" fill="#687970"/>
<path d="M84.0601 18.9481C82.5245 18.9481 81.3662 17.0239 81.3662 14.474C81.3662 11.9242 82.5245 10 84.0601 10C85.5958 10 86.7541 11.9242 86.7541 14.474C86.7541 17.0239 85.5958 18.9481 84.0601 18.9481ZM84.0601 11.4747C83.5773 11.4747 82.8464 12.6708 82.8464 14.474C82.8464 16.2773 83.5773 17.4734 84.0601 17.4734C84.543 17.4734 85.2739 16.2773 85.2739 14.474C85.2739 12.6708 84.543 11.4747 84.0601 11.4747Z" fill="#687970"/>
<path d="M34.3694 15.3105L24 70.0006H64.3905L34.3694 15.3105Z" fill="url(#paint0_linear_2030_22901)"/>
<path d="M24 69.9997L34.3694 59.3613L44.3826 69.9997H24Z" fill="#B0B7B3"/>
<path d="M34.3691 59.3613H50.5406L44.3823 69.9997L34.3691 59.3613Z" fill="#D8DBDB"/>
<path d="M44.3502 70L36.9502 28.2812L90.1377 27.3438L97.5377 70H44.3502Z" fill="white"/>
<path d="M90.4404 28.7064H36.823L36.3586 26.1776L34.3691 15.3105H87.9866L89.976 26.1776L90.4404 28.7064Z" fill="#D8EDD0"/>
<path d="M93.9944 56.6195L93.9284 56.2541L92.8176 50.1897L92.7516 49.8243L91.6408 43.7599L91.5749 43.3945L90.464 37.3328L90.3981 36.9674L89.3005 30.9766H39.2002L40.2978 36.9674L40.3638 37.3328L41.4746 43.3945L41.5406 43.7599L42.6514 49.8243L42.7173 50.1897L43.8282 56.2541L43.8941 56.6195L45.034 62.8469H95.1342L93.9944 56.6195ZM93.5564 56.2541H87.2239L86.1131 50.1897H92.4482L93.5564 56.2541ZM63.282 43.7599H70.129L71.2371 49.8243H64.3928L63.282 43.7599ZM64.0234 49.8243H57.1791L56.0683 43.7599H62.9152L64.0234 49.8243ZM70.501 43.7599H77.348L78.4561 49.8243H71.6118L70.501 43.7599ZM77.7173 43.7599H84.5643L85.6725 49.8243H78.8282L77.7173 43.7599ZM77.6514 43.3945L76.5432 37.3328H83.3875L84.4957 43.3945H77.6514ZM77.2793 43.3945H70.435L69.3268 37.3328H76.1712L77.2793 43.3945ZM70.0604 43.3945H63.216L62.1078 37.3328H68.9522L70.0604 43.3945ZM62.8466 43.3945H56.0023L54.8941 37.3328H61.7385L62.8466 43.3945ZM55.6276 43.3945H48.7833L47.6751 37.3328H54.5195L55.6276 43.3945ZM55.6962 43.7599L56.8044 49.8243H49.9601L48.8493 43.7599H55.6962ZM56.8704 50.1897L57.9812 56.2541H51.1369L50.0261 50.1897H56.8704ZM57.2451 50.1897H64.0894L65.2002 56.2541H58.3559L57.2451 50.1897ZM64.4614 50.1897H71.3057L72.4166 56.2541H65.5722L64.4614 50.1897ZM71.6778 50.1897H78.5221L79.6329 56.2541H72.7886L71.6778 50.1897ZM78.8941 50.1897H85.7385L86.8493 56.2541H80.0049L78.8941 50.1897ZM92.3796 49.8243H86.0472L84.9363 43.7599H91.2714L92.3796 49.8243ZM91.2002 43.3945H84.8677L83.7596 37.3328H90.092L91.2002 43.3945ZM88.9944 31.3393L90.0261 36.9647H83.691L82.6619 31.3393H88.9944ZM82.2899 31.3393L83.3216 36.9647H76.4746L75.4456 31.3393H82.2899ZM75.0735 31.3393L76.1052 36.9647H69.2582L68.2292 31.3393H75.0735ZM67.8545 31.3393L68.8862 36.9647H62.0392L61.0102 31.3393H67.8545ZM60.6408 31.3393L61.6725 36.9647H54.8255L53.7965 31.3393H60.6408ZM53.4218 31.3393L54.4535 36.9647H47.6065L46.5775 31.3393H53.4218ZM39.6408 31.3393H46.2081L47.2398 36.9647H40.6725L39.6408 31.3393ZM40.7358 37.3328H47.3031L48.4113 43.3945H41.844L40.7358 37.3328ZM41.9126 43.7599H48.4799L49.5881 49.8243H43.0208L41.9126 43.7599ZM43.092 50.1897H49.6567L50.7675 56.2541H44.2002L43.092 50.1897ZM45.34 62.4815L44.2688 56.6195H50.8334L51.9073 62.4815H45.34ZM52.2794 62.4815L51.2055 56.6195H58.0498L59.1237 62.4815H52.2794ZM59.4957 62.4815L58.4218 56.6195H65.2662L66.34 62.4815H59.4957ZM66.7121 62.4815L65.6382 56.6195H72.4825L73.5564 62.4815H66.7121ZM73.9311 62.4815L72.8572 56.6195H79.7015L80.7754 62.4815H73.9311ZM81.1474 62.4815L80.0735 56.6195H86.9179L87.9918 62.4815H81.1474ZM88.3638 62.4815L87.2899 56.6195H93.625L94.6962 62.4815H88.3638Z" fill="#DEE3E0"/>
<path d="M39.7497 16.959C39.156 17.0405 38.7549 17.7003 38.8552 18.4363C38.9555 19.1723 39.5201 19.7007 40.1138 19.6218C40.7075 19.543 41.1085 18.8805 41.0082 18.1445C40.908 17.4085 40.3433 16.8801 39.7497 16.959Z" fill="#85948C"/>
<path d="M85.1371 18.1445C85.0369 17.4085 84.4722 16.8801 83.8786 16.959C83.2849 17.0405 82.8838 17.7003 82.9841 18.4363C83.0844 19.1723 83.649 19.7007 84.2427 19.6218C84.8364 19.5403 85.2374 18.8805 85.1371 18.1445Z" fill="#85948C"/>
<path d="M76.5231 16.959C75.9294 17.0405 75.5284 17.7003 75.6286 18.4363C75.7289 19.1723 76.2936 19.7007 76.8872 19.6218C77.4809 19.543 77.8819 18.8805 77.7817 18.1445C77.6814 17.4085 77.1168 16.8801 76.5231 16.959Z" fill="#85948C"/>
<path d="M69.1696 16.959C68.5759 17.0405 68.1749 17.7003 68.2751 18.4363C68.3754 19.1723 68.94 19.7007 69.5337 19.6218C70.1274 19.543 70.5284 18.8805 70.4282 18.1445C70.3279 17.4085 69.7633 16.8801 69.1696 16.959Z" fill="#85948C"/>
<path d="M61.8131 16.959C61.2195 17.0405 60.8184 17.7003 60.9187 18.4363C61.0189 19.1723 61.5836 19.7007 62.1773 19.6218C62.7709 19.543 63.172 18.8805 63.0717 18.1445C62.9715 17.4085 62.4068 16.8801 61.8131 16.959Z" fill="#85948C"/>
<path d="M54.4596 16.959C53.866 17.0405 53.4649 17.7003 53.5652 18.4363C53.6654 19.1723 54.2301 19.7007 54.8237 19.6218C55.4174 19.5403 55.8185 18.8805 55.7182 18.1445C55.6179 17.4085 55.0533 16.8801 54.4596 16.959Z" fill="#85948C"/>
<path d="M47.1032 16.959C46.5095 17.0405 46.1085 17.7003 46.2087 18.4363C46.309 19.1723 46.8736 19.7007 47.4673 19.6218C48.061 19.543 48.462 18.8805 48.3618 18.1445C48.2615 17.4085 47.6968 16.8801 47.1032 16.959Z" fill="#85948C"/>
<path d="M39.9759 18.9481C39.5669 18.9481 39.2344 18.6169 39.2344 18.2094C39.2344 17.802 39.5669 17.4708 39.9759 17.4708C40.4587 17.4708 41.1896 16.2747 41.1896 14.4714C41.1896 12.6681 40.4587 11.4721 39.9759 11.4721C39.493 11.4721 38.7621 12.6681 38.7621 14.4714C38.7621 14.8789 38.4297 15.2101 38.0207 15.2101C37.6118 15.2101 37.2793 14.8789 37.2793 14.4714C37.2819 11.9242 38.4402 10 39.9759 10C41.5115 10 42.6698 11.9242 42.6698 14.474C42.6698 17.0239 41.5115 18.9481 39.9759 18.9481Z" fill="#687970"/>
<path d="M47.3245 18.9481C46.9155 18.9481 46.5831 18.6169 46.5831 18.2094C46.5831 17.802 46.9155 17.4708 47.3245 17.4708C47.8073 17.4708 48.5382 16.2747 48.5382 14.4714C48.5382 12.6681 47.8073 11.4721 47.3245 11.4721C46.8417 11.4721 46.1108 12.6681 46.1108 14.4714C46.1108 14.8789 45.7783 15.2101 45.3694 15.2101C44.9604 15.2101 44.6279 14.8789 44.6279 14.4714C44.6306 11.9242 45.7889 10 47.3245 10C48.8601 10 50.0184 11.9242 50.0184 14.474C50.0184 17.0239 48.8601 18.9481 47.3245 18.9481Z" fill="#687970"/>
<path d="M54.6702 18.9481C54.2612 18.9481 53.9288 18.6169 53.9288 18.2094C53.9288 17.802 54.2612 17.4708 54.6702 17.4708C55.1531 17.4708 55.8839 16.2747 55.8839 14.4714C55.8839 12.6681 55.1531 11.4721 54.6702 11.4721C54.1874 11.4721 53.4565 12.6681 53.4565 14.4714C53.4565 14.8789 53.124 15.2101 52.7151 15.2101C52.3061 15.2101 51.9736 14.8789 51.9736 14.4714C51.9763 11.9242 53.1346 10 54.6702 10C56.2058 10 57.3641 11.9242 57.3641 14.474C57.3641 17.0239 56.2058 18.9481 54.6702 18.9481Z" fill="#687970"/>
<path d="M62.0179 18.9481C61.6089 18.9481 61.2764 18.6169 61.2764 18.2094C61.2764 17.802 61.6089 17.4708 62.0179 17.4708C62.5007 17.4708 63.2316 16.2747 63.2316 14.4714C63.2316 12.6681 62.5007 11.4721 62.0179 11.4721C61.535 11.4721 60.8041 12.6681 60.8041 14.4714C60.8041 14.8789 60.4717 15.2101 60.0627 15.2101C59.6537 15.2101 59.3213 14.8789 59.3213 14.4714C59.3239 11.9242 60.4822 10 62.0179 10C63.5535 10 64.7118 11.9242 64.7118 14.474C64.7118 17.0239 63.5535 18.9481 62.0179 18.9481Z" fill="#687970"/>
<path d="M69.3665 18.9481C68.9575 18.9481 68.6251 18.6169 68.6251 18.2094C68.6251 17.802 68.9575 17.4708 69.3665 17.4708C69.8493 17.4708 70.5802 16.2747 70.5802 14.4714C70.5802 12.6681 69.8493 11.4721 69.3665 11.4721C68.8836 11.4721 68.1528 12.6681 68.1528 14.4714C68.1528 14.8789 67.8203 15.2101 67.4113 15.2101C67.0024 15.2101 66.6699 14.8789 66.6699 14.4714C66.6726 11.9242 67.8282 10 69.3665 10C70.9048 10 72.0604 11.9242 72.0604 14.474C72.0604 17.0239 70.9021 18.9481 69.3665 18.9481Z" fill="#687970"/>
<path d="M76.7122 18.9481C76.3032 18.9481 75.9708 18.6169 75.9708 18.2094C75.9708 17.802 76.3032 17.4708 76.7122 17.4708C77.195 17.4708 77.9259 16.2747 77.9259 14.4714C77.9259 12.6681 77.195 11.4721 76.7122 11.4721C76.2293 11.4721 75.4985 12.6681 75.4985 14.4714C75.4985 14.8789 75.166 15.2101 74.757 15.2101C74.3481 15.2101 74.0156 14.8789 74.0156 14.4714C74.0183 11.9242 75.1766 10 76.7122 10C78.2478 10 79.4061 11.9242 79.4061 14.474C79.4061 17.0239 78.2478 18.9481 76.7122 18.9481Z" fill="#687970"/>
<path d="M84.0599 18.9481C83.6509 18.9481 83.3184 18.6169 83.3184 18.2094C83.3184 17.802 83.6509 17.4708 84.0599 17.4708C84.5427 17.4708 85.2736 16.2747 85.2736 14.4714C85.2736 12.6681 84.5427 11.4721 84.0599 11.4721C83.577 11.4721 82.8461 12.6681 82.8461 14.4714C82.8461 14.8789 82.5137 15.2101 82.1047 15.2101C81.6957 15.2101 81.3633 14.8789 81.3633 14.4714C81.3659 11.9242 82.5242 10 84.0599 10C85.5955 10 86.7538 11.9242 86.7538 14.474C86.7538 17.0239 85.5955 18.9481 84.0599 18.9481Z" fill="#687970"/>
</g>
<path d="M114.865 32.8349C115.272 34.1539 114.534 35.554 113.215 35.962L106.93 37.9056C105.612 38.3132 104.211 37.5748 103.803 36.2559C103.395 34.9369 104.134 33.537 105.453 33.1289L106.089 32.9321C104.643 32.4782 103.124 32.2499 101.586 32.2683C98.1964 32.309 94.927 33.5366 92.3484 35.7365C89.7701 37.9363 88.0444 40.9701 87.4713 44.3093C86.8984 47.6486 87.5142 51.0828 89.2116 54.0146C89.9032 55.2092 89.4958 56.7382 88.3012 57.4302C87.1068 58.1217 85.5768 57.7151 84.8847 56.5202C82.601 52.5759 81.7724 47.9551 82.5432 43.463C83.3142 38.971 85.6362 34.891 89.104 31.9325C92.5718 28.9741 96.9669 27.3239 101.525 27.2691C103.833 27.2414 106.11 27.6247 108.254 28.3824L108.136 28.0008C107.728 26.682 108.467 25.2819 109.785 24.8737C111.105 24.4658 112.504 25.2047 112.913 26.5234L114.865 32.8349ZM118.645 37.0086C120.933 40.9573 121.76 45.5834 120.985 50.0806C120.211 54.5778 117.882 58.662 114.406 61.619C110.929 64.5758 106.524 66.2198 101.96 66.2636C99.6536 66.2857 97.3812 65.8969 95.2414 65.1357L95.3652 65.536C95.7731 66.855 95.0344 68.255 93.7155 68.663C92.3964 69.071 90.9964 68.3324 90.5884 67.0133L88.624 60.6617C88.2161 59.3427 88.9547 57.9426 90.2737 57.5347L96.587 55.5821C97.906 55.1743 99.3061 55.9128 99.7141 57.2318C100.122 58.5505 99.3833 59.9508 98.0644 60.3589L97.3693 60.5738C98.827 61.0398 100.36 61.2781 101.913 61.2632C105.306 61.2305 108.581 60.008 111.166 57.8095C113.751 55.6109 115.483 52.5751 116.059 49.2318C116.635 45.8886 116.019 42.4494 114.319 39.5142C113.67 38.3943 113.987 36.9804 115.013 36.2378L115.229 36.0986C116.423 35.4069 117.953 35.8137 118.645 37.0086Z" fill="#409C89" stroke="#F5F5F5" stroke-linecap="round" stroke-linejoin="round"/>
<defs>
<filter id="filter0_d_2030_22901" x="14" y="3" width="94.5381" height="76" filterUnits="userSpaceOnUse" color-interpolation-filters="sRGB">
<feFlood flood-opacity="0" result="BackgroundImageFix"/>
<feColorMatrix in="SourceAlpha" type="matrix" values="0 0 0 0 0 0 0 0 0 0 0 0 0 0 0 0 0 0 127 0" result="hardAlpha"/>
<feOffset dx="3" dy="1"/>
<feGaussianBlur stdDeviation="4"/>
<feComposite in2="hardAlpha" operator="out"/>
<feColorMatrix type="matrix" values="0 0 0 0 0 0 0 0 0 0 0 0 0 0 0 0 0 0 0.1 0"/>
<feBlend mode="normal" in2="BackgroundImageFix" result="effect1_dropShadow_2030_22901"/>
<feBlend mode="normal" in="SourceGraphic" in2="effect1_dropShadow_2030_22901" result="shape"/>
</filter>
<linearGradient id="paint0_linear_2030_22901" x1="44.1953" y1="15.3105" x2="44.1953" y2="70.0006" gradientUnits="userSpaceOnUse">
<stop stop-color="#B0B7B3"/>
<stop offset="1" stop-color="#D8DBDB"/>
</linearGradient>
</defs>
</svg>
