<svg width="40" height="40" viewBox="0 0 40 40" fill="none" xmlns="http://www.w3.org/2000/svg">
<rect width="40" height="40" rx="8" fill="#ECEFED"/>
<path d="M27.9168 22.8224C28.201 22.2962 28.3588 21.7068 28.3588 21.0648C28.3588 19.3388 27.159 17.8864 25.5488 17.4865C25.6225 16.9603 25.5699 16.4656 25.4015 15.992C24.8858 14.5923 23.4018 13.824 22.0232 13.2452C20.2445 12.5085 20.1498 11.1929 20.1498 11.0561C20.1498 10.6983 19.9604 10.3615 19.6552 10.1615C19.35 9.96158 18.9606 9.95106 18.6343 10.1089C18.4764 10.1826 14.6666 12.0559 13.9299 15.0764C13.7294 15.8955 13.7733 16.7553 14.0562 17.5497C13.542 17.717 13.0709 17.9952 12.6762 18.3647C12.2815 18.7343 11.9728 19.186 11.772 19.688C11.5712 20.1901 11.4832 20.7301 11.5141 21.2699C11.5451 21.8097 11.6944 22.3361 11.9513 22.8118C11.2114 23.0527 10.5666 23.5214 10.1092 24.1509C9.65173 24.7803 9.40505 25.5383 9.40442 26.3165C9.40442 28.3477 11.0567 30 13.088 30H26.7696C28.8009 30 30.4532 28.3477 30.4532 26.3165C30.4532 24.6852 29.3797 23.2854 27.9063 22.8118L27.9168 22.8224ZM26.7802 27.9056H13.0985C12.225 27.9056 11.5198 27.2005 11.5198 26.327C11.5198 25.4535 12.225 24.7483 13.0985 24.7483H15.2034C15.7822 24.7483 16.2558 24.2747 16.2558 23.6959C16.2558 23.1171 15.7822 22.6435 15.2034 22.6435C14.3298 22.6435 13.6247 21.9383 13.6247 21.0648C13.6247 20.1913 14.3298 19.4861 15.2034 19.4861H15.7296C16.1295 19.4861 16.4979 19.2651 16.6662 18.9073C16.8346 18.5495 16.8031 18.1285 16.5715 17.8022C16.0032 17.0445 15.8032 16.3183 15.9822 15.5816C16.2663 14.4029 17.4556 13.3504 18.4449 12.6663C18.8448 13.5188 19.6341 14.5292 21.2128 15.1922C22.5178 15.7395 23.244 16.2446 23.4229 16.7288C23.465 16.8445 23.5913 17.1813 23.2019 17.9601C23.044 18.2864 23.0545 18.6758 23.244 18.981C23.4334 19.2862 23.7702 19.4756 24.1386 19.4756H24.6648C25.5383 19.4756 26.2434 20.1808 26.2434 21.0543C26.2434 21.9278 25.5383 22.6329 24.6648 22.6329C24.0859 22.6329 23.6123 23.1065 23.6123 23.6854C23.6123 24.2642 24.0859 24.7378 24.6648 24.7378H26.7696C27.6432 24.7378 28.3483 25.4429 28.3483 26.3165C28.3483 27.19 27.6432 27.8951 26.7696 27.8951L26.7802 27.9056Z" fill="#4A5C54"/>
<path d="M25.2618 11.7637C27.0147 14.3325 28.1504 16.1604 28.6984 17.2754V17.2764C29.3142 18.5279 29.5958 19.6536 29.5958 20.666C29.5958 21.8634 29.1804 22.8651 28.3224 23.7246L28.3175 23.7305L28.3116 23.7363C27.9185 24.1428 27.446 24.4644 26.924 24.6816C26.402 24.8988 25.8408 25.0075 25.2755 25H25.2628C24.0659 25 23.063 24.5839 22.2013 23.7236L22.1954 23.7188L22.1906 23.7129L22.0421 23.5625C21.7059 23.2018 21.436 22.7835 21.2462 22.3271C21.0293 21.8055 20.9213 21.2446 20.9288 20.6797V20.666C20.9289 19.6517 21.2106 18.5258 21.8263 17.2764V17.2754C22.3742 16.1605 23.5092 14.3322 25.2618 11.7637Z" fill="#4A5C54" stroke="#ECEFED" stroke-width="2"/>
</svg>
