<svg width="12" height="12" viewBox="0 0 12 12" fill="none" xmlns="http://www.w3.org/2000/svg">
<g clip-path="url(#clip0_840_9094)">
<path d="M8.99995 0.803995C9.9049 1.32651 10.6577 2.0763 11.1838 2.97916C11.7099 3.88202 11.9911 4.90664 11.9996 5.95157C12.008 6.99651 11.7434 8.02553 11.2319 8.93677C10.7205 9.84801 9.97989 10.6099 9.08349 11.1469C8.1871 11.684 7.16598 11.9776 6.12122 11.9988C5.07647 12.0199 4.04431 11.7678 3.12692 11.2675C2.20952 10.7671 1.43871 10.0359 0.890795 9.14606C0.342875 8.25626 0.0368454 7.23879 0.00300005 6.19437L0 5.99997L0.00300005 5.80557C0.0433908 4.55709 0.472431 3.35235 1.23028 2.35939C1.98813 1.36642 3.03699 0.634737 4.23058 0.266399C4.18152 0.526507 4.19043 0.794233 4.25668 1.0505C4.32293 1.30677 4.44488 1.54528 4.61385 1.74902C4.78282 1.95277 4.99464 2.11674 5.23423 2.22926C5.47382 2.34178 5.73527 2.40007 5.99997 2.39999C6.1591 2.39999 6.31171 2.33677 6.42423 2.22425C6.53675 2.11173 6.59996 1.95912 6.59996 1.79999C6.59996 1.64086 6.53675 1.48825 6.42423 1.37573C6.31171 1.26321 6.1591 1.19999 5.99997 1.19999L5.92977 1.19579C5.77791 1.17773 5.63868 1.10237 5.54053 0.985094C5.44237 0.867823 5.3927 0.717498 5.40167 0.564834C5.41063 0.41217 5.47755 0.268689 5.58875 0.163708C5.69995 0.0587272 5.84704 0.000169624 5.99997 0C7.03556 0 8.07175 0.268198 8.99995 0.803995ZM7.91996 7.37156C7.80633 7.26018 7.65312 7.1985 7.49402 7.20008C7.33492 7.20165 7.18296 7.26636 7.07156 7.37996C6.93189 7.52255 6.76517 7.63584 6.58116 7.71317C6.39716 7.79051 6.19957 7.83035 5.99997 7.83035C5.80037 7.83035 5.60278 7.79051 5.41877 7.71317C5.23476 7.63584 5.06804 7.52255 4.92837 7.37996C4.81641 7.26898 4.66527 7.20652 4.50763 7.20608C4.34999 7.20565 4.1985 7.26727 4.08593 7.37763C3.97336 7.488 3.90875 7.63823 3.90606 7.79585C3.90338 7.95347 3.96283 8.10582 4.07158 8.21995C4.32296 8.47648 4.623 8.68026 4.95413 8.81939C5.28525 8.95851 5.6408 9.03017 5.99997 9.03017C6.35913 9.03017 6.71468 8.95851 7.04581 8.81939C7.37693 8.68026 7.67697 8.47648 7.92836 8.21995C8.03973 8.10633 8.10141 7.95312 8.09984 7.79402C8.09826 7.63492 8.03356 7.48296 7.91996 7.37156ZM4.20598 4.19998L4.12978 4.20418C3.97792 4.22224 3.83869 4.2976 3.74054 4.41488C3.64238 4.53215 3.59271 4.68247 3.60168 4.83514C3.61064 4.9878 3.67756 5.13128 3.78876 5.23626C3.89996 5.34124 4.04705 5.3998 4.19998 5.39997L4.27618 5.39577C4.42803 5.37771 4.56726 5.30234 4.66541 5.18507C4.76357 5.0678 4.81324 4.91747 4.80428 4.76481C4.79531 4.61215 4.7284 4.46867 4.6172 4.36368C4.50599 4.2587 4.3589 4.20015 4.20598 4.19998ZM7.80596 4.19998L7.72976 4.20418C7.5779 4.22224 7.43867 4.2976 7.34052 4.41488C7.24236 4.53215 7.19269 4.68247 7.20166 4.83514C7.21062 4.9878 7.27754 5.13128 7.38874 5.23626C7.49994 5.34124 7.64703 5.3998 7.79996 5.39997L7.87616 5.39577C8.02801 5.37771 8.16724 5.30234 8.26539 5.18507C8.36355 5.0678 8.41322 4.91747 8.40426 4.76481C8.39529 4.61215 8.32838 4.46867 8.21718 4.36368C8.10597 4.2587 7.95888 4.20015 7.80596 4.19998Z" fill="white"/>
</g>
<defs>
<clipPath id="clip0_840_9094">
<rect width="12" height="12" fill="white"/>
</clipPath>
</defs>
</svg>
