<svg width="32" height="32" viewBox="0 0 32 32" fill="none" xmlns="http://www.w3.org/2000/svg">
<rect width="32" height="32" rx="16" fill="#EDF6E9"/>
<path d="M12.7482 9.25606C12.7482 9.68366 12.8324 10.1071 12.996 10.5021C13.1597 10.8971 13.3995 11.2561 13.7019 11.5584C14.0042 11.8608 14.3632 12.1006 14.7582 12.2643C15.1533 12.4279 15.5767 12.5121 16.0042 12.5121C16.4318 12.5121 16.8552 12.4279 17.2503 12.2643C17.6453 12.1006 18.0043 11.8608 18.3066 11.5584C18.609 11.2561 18.8488 10.8971 19.0125 10.5021C19.1761 10.1071 19.2603 9.68366 19.2603 9.25606C19.2603 8.3925 18.9173 7.56431 18.3066 6.95368C17.696 6.34305 16.8678 6 16.0042 6C15.1407 6 14.3125 6.34305 13.7019 6.95368C13.0912 7.56431 12.7482 8.3925 12.7482 9.25606ZM22.5097 16.8558C21.966 15.9539 21.515 15.052 20.9712 14.4154C20.6131 14.0573 20.2418 13.7787 19.7113 13.6063C19.3917 13.4918 19.0559 13.4291 18.7165 13.4206H13.6501C13.0134 13.4206 12.4697 13.6063 12.1116 13.8716C10.9312 14.601 10.3874 15.9539 9.76401 17.3067C9.22023 18.3943 8.58361 19.6675 8.49077 21.0203C8.39793 22.3732 8.94171 23.5536 9.76401 24.2698C10.6659 25.0921 12.9206 26.0868 14.7376 25.994C15.8119 25.9011 16.8067 25.543 17.178 24.7207C17.629 23.6464 16.7271 23.0098 15.9048 22.9169C15.0957 22.8241 14.101 22.9169 13.2787 22.7313C12.9206 22.6517 12.5625 22.5588 12.2044 22.466C11.833 22.3732 11.4749 22.1875 11.3821 21.9222C11.7535 21.7365 12.284 21.8294 12.8278 21.7365C13.1991 21.657 13.9153 21.5641 13.9153 21.1928C13.9153 21.0203 13.6501 20.5694 13.5572 20.2909C13.2787 19.5747 13.1063 18.129 14.2734 18.3943C14.9101 18.4871 15.0957 19.2033 15.361 19.6675C16.0905 20.8347 16.8995 21.8294 18.8889 21.657C18.5308 22.1079 17.8942 22.3732 17.8014 23.1026C17.7218 24.0045 18.438 24.4554 19.1675 24.4554C20.706 24.4554 21.7007 23.4607 22.5097 22.6517C23.0535 22.0151 23.5973 21.1928 23.5973 20.0256C23.5973 18.6728 23.0535 17.6781 22.5097 16.8558ZM18.3452 20.4766C17.2576 20.4766 16.4486 19.5747 16.4486 18.5799C16.4486 17.5852 17.3504 16.6833 18.3452 16.6833C19.3399 16.6833 20.2418 17.5852 20.2418 18.5799C20.2418 19.5747 19.4327 20.4766 18.3452 20.4766Z" fill="#589C40"/>
</svg>
