<svg width="21" height="20" viewBox="0 0 21 20" fill="none" xmlns="http://www.w3.org/2000/svg">
<path d="M4.44141 15.8047C5.61162 16.5596 7.00388 17 8.5 17C9.36517 17 10.1955 16.8516 10.9688 16.582C11.0218 16.9171 11.1498 17.2352 11.3389 17.5127C10.4509 17.8273 9.49573 18 8.5 18C6.52867 18 4.7153 17.3273 3.27344 16.2012C3.69737 16.1662 4.09105 16.0329 4.44141 15.8047ZM1.95508 14.7764C2.01188 14.8309 2.07073 14.8805 2.13184 14.9248C2.07042 14.8805 2.01107 14.8311 1.9541 14.7764C1.92024 14.7453 1.88887 14.7119 1.8584 14.6777C1.88898 14.7119 1.92117 14.7453 1.95508 14.7764ZM1.61621 14.3008C1.65357 14.3868 1.69953 14.4684 1.75293 14.5449C1.72764 14.5086 1.70348 14.4712 1.68164 14.4326L1.61523 14.3008C1.59571 14.2558 1.57905 14.2097 1.56445 14.1631C1.5791 14.2097 1.59669 14.2558 1.61621 14.3008ZM8.5 1C13.0582 1 16.7772 4.588 16.9893 9.09375C16.6698 8.94006 16.32 8.86481 15.9707 8.86914C15.6502 5.02235 12.4296 2 8.5 2C4.35786 2 1 5.35786 1 9.5C1 10.2116 1.10098 10.8995 1.28613 11.5518C1.1234 11.8059 0.992232 12.0238 0.899414 12.2051C0.803187 12.393 0.721403 12.5857 0.657227 12.7822C0.234077 11.7723 0 10.6635 0 9.5C0 4.80558 3.80558 1 8.5 1Z" fill="#4A5C54"/>
<path d="M3.0459 15.212C2.62098 15.212 2.25724 15.0667 1.95469 14.7761C1.80962 14.6431 1.69416 14.481 1.61582 14.3005C1.53749 14.12 1.49803 13.925 1.50002 13.7282C1.50002 13.3939 1.59662 13.0381 1.78982 12.6608C1.98302 12.2834 2.40171 11.6494 3.0459 10.7588C3.68953 11.6494 4.10794 12.2834 4.30114 12.6608C4.49377 13.0381 4.59009 13.3939 4.59009 13.7282C4.59009 14.1361 4.4391 14.4854 4.13711 14.7761C3.83457 15.0667 3.47083 15.212 3.0459 15.212Z" fill="#4A5C54"/>
<path d="M6.77273 7C6.5 7.81818 5.46364 9.20909 3.5 8.22727" stroke="#4A5C54" stroke-linecap="round"/>
<path d="M8.49979 11C7.816 11 7.2325 11.2737 6.78576 11.5915C6.3299 11.9181 5.95609 12.3154 5.69169 12.642C5.56612 12.7923 5.49837 12.9801 5.50003 13.1733C5.50169 13.3666 5.57267 13.5532 5.70081 13.7014C5.91962 13.9486 6.33901 14.1075 6.7584 13.9133L7.4422 13.5778C7.74306 13.4366 7.93453 13.3748 8.0804 13.3483C8.21715 13.3218 8.32656 13.3218 8.49978 13.3218H8.49979H8.49981C8.67302 13.3218 8.78243 13.3218 8.91918 13.3483C9.06506 13.3748 9.25652 13.4366 9.55739 13.5778L10.2412 13.9133C10.6606 14.1075 11.08 13.9486 11.2988 13.7014C11.5176 13.4454 11.6088 13.004 11.3079 12.642C11.0435 12.3154 10.6697 11.9181 10.2138 11.5915C9.76708 11.2737 9.18358 11 8.49979 11Z" fill="#4A5C54"/>
<path d="M10.2273 7C10.5 7.81818 11.5364 9.20909 13.5 8.22727" stroke="#4A5C54" stroke-linecap="round"/>
<path d="M14.8917 10.5261C15.3708 9.65012 16.629 9.65012 17.1081 10.5261L19.9001 15.6307C20.3605 16.4725 19.7514 17.5 18.7919 17.5H13.2079C12.2484 17.5 11.6392 16.4725 12.0997 15.6307L14.8917 10.5261Z" fill="#F2597F"/>
<path d="M15.4363 12.615C15.4 12.2723 15.6687 11.9737 16.0133 11.9737C16.3482 11.9737 16.6136 12.2565 16.5924 12.5907L16.4764 14.4174C16.4622 14.6414 16.2764 14.8158 16.0519 14.8158C15.8343 14.8158 15.6518 14.6516 15.6289 14.4352L15.4363 12.615Z" fill="white"/>
<circle cx="16.0315" cy="15.9211" r="0.473684" fill="white"/>
</svg>
