<svg width="40" height="40" viewBox="0 0 40 40" fill="none" xmlns="http://www.w3.org/2000/svg">
<rect width="40" height="40" rx="6.4" fill="#ECEFED"/>
<g clip-path="url(#clip0_840_11322)">
<path d="M15.8639 16.9321C15.935 16.7899 16.0596 16.6818 16.2104 16.6314C16.3611 16.581 16.5257 16.5925 16.668 16.6633L17.6376 17.1481C18.6696 17.6641 18.6696 19.1361 17.6376 19.6521L16.668 20.1369C16.5974 20.1728 16.5204 20.1944 16.4414 20.2004C16.3625 20.2064 16.2831 20.1968 16.2079 20.172C16.1327 20.1472 16.0632 20.1078 16.0033 20.056C15.9434 20.0042 15.8943 19.941 15.859 19.8702C15.8236 19.7993 15.8026 19.7222 15.7972 19.6432C15.7918 19.5642 15.802 19.4849 15.8274 19.4099C15.8528 19.3349 15.8928 19.2656 15.945 19.2061C15.9973 19.1466 16.0608 19.0981 16.1319 19.0633L17.1 18.5793C17.1333 18.5627 17.1614 18.5372 17.1811 18.5055C17.2007 18.4739 17.2111 18.4373 17.2111 18.4001C17.2111 18.3628 17.2007 18.3263 17.1811 18.2946C17.1614 18.263 17.1333 18.2374 17.1 18.2209L16.1319 17.7369C15.9896 17.6658 15.8813 17.5411 15.8309 17.3901C15.7805 17.2392 15.7929 17.0744 15.8639 16.9321ZM24.136 16.9321C24.2071 17.0743 24.2188 17.239 24.1686 17.39C24.1183 17.5409 24.0102 17.6656 23.8679 17.7369L22.9 18.2209C22.8666 18.2374 22.8385 18.263 22.8188 18.2946C22.7992 18.3263 22.7888 18.3628 22.7888 18.4001C22.7888 18.4373 22.7992 18.4739 22.8188 18.5055C22.8385 18.5372 22.8666 18.5627 22.9 18.5793L23.8679 19.0633C23.9391 19.0981 24.0026 19.1466 24.0549 19.2061C24.1071 19.2656 24.1471 19.3349 24.1725 19.4099C24.1979 19.4849 24.2081 19.5642 24.2027 19.6432C24.1973 19.7222 24.1763 19.7993 24.1409 19.8702C24.1056 19.941 24.0565 20.0042 23.9966 20.056C23.9367 20.1078 23.8672 20.1472 23.792 20.172C23.7168 20.1968 23.6374 20.2064 23.5585 20.2004C23.4795 20.1944 23.4025 20.1728 23.332 20.1369L22.3624 19.6521C21.3304 19.1361 21.3304 17.6641 22.3624 17.1481L23.332 16.6633C23.4743 16.5922 23.6391 16.5806 23.79 16.631C23.9409 16.6814 24.0649 16.7897 24.136 16.9321Z" fill="#4A5C54"/>
<path fill-rule="evenodd" clip-rule="evenodd" d="M13.8888 25.1632C12.6666 23.7207 11.9971 21.8906 12 20C12 15.5816 15.5816 12 20 12C24.4184 12 28 15.5816 28 20C28.0029 21.8906 27.3334 23.7207 26.1112 25.1632C26.26 25.3392 26.3816 25.5688 26.3984 25.8576C26.4288 26.3984 26.0752 26.7592 25.8152 26.9488C25.2952 27.3288 24.4184 27.5776 23.4488 27.7408C22.436 27.9104 21.2304 28 20.0032 28C18.776 28 17.5696 27.9112 16.5552 27.7408C15.5856 27.5784 14.7088 27.3304 14.1872 26.9512C13.9272 26.7624 13.5728 26.4024 13.6016 25.8632C13.6168 25.572 13.7384 25.3408 13.8888 25.1632ZM13.6 20C13.6 18.9616 13.8526 17.9387 14.3361 17.0197C14.8196 16.1007 15.5195 15.3132 16.3753 14.725C17.2312 14.1369 18.2173 13.7659 19.2485 13.6439C20.2798 13.522 21.3252 13.6528 22.2946 14.0251C23.264 14.3974 24.1283 15 24.8128 15.7809C25.4973 16.5618 25.9815 17.4976 26.2236 18.5074C26.4657 19.5172 26.4585 20.5708 26.2025 21.5772C25.9466 22.5836 25.4496 23.5126 24.7544 24.284C24.51 24.1722 24.2579 24.078 24 24.0024V23.004C24 22.5529 23.8729 22.1109 23.6332 21.7287C23.3935 21.3465 23.051 21.0396 22.6448 20.8432L21.9624 20.5128C21.8163 20.4345 21.6669 20.3627 21.5144 20.2976C20.8248 20.0032 20.3736 20 20 20H19.9888C19.7424 20 19.4136 20 18.9848 20.12C18.8147 20.1681 18.6479 20.2274 18.4856 20.2976C18.3332 20.3629 18.1837 20.435 18.0376 20.5136L17.3552 20.8432C16.9492 21.0395 16.6067 21.3463 16.367 21.7283C16.1273 22.1104 16.0001 22.5522 16 23.0032V24.0032C15.7421 24.0786 15.49 24.1724 15.2456 24.284C14.1844 23.1097 13.5978 21.5828 13.6 20ZM19.6 21.62C19.7264 21.6008 19.8432 21.6 20 21.6C20.1664 21.6 20.2736 21.6008 20.3968 21.62H20.4V24C20.4 24.1591 20.4632 24.3117 20.5757 24.4243C20.6883 24.5368 20.8409 24.6 21 24.6C21.1591 24.6 21.3118 24.5368 21.4243 24.4243C21.5368 24.3117 21.6 24.1591 21.6 24V22.1152L21.948 22.2832C22.0834 22.3486 22.1976 22.4508 22.2776 22.5782C22.3575 22.7055 22.3999 22.8528 22.4 23.0032V25.3232L23.0744 25.4304C23.5928 25.5128 24.0344 25.6968 24.3768 25.8816C24.0912 25.9768 23.6968 26.076 23.1848 26.1624C22.276 26.3144 21.16 26.4 20.0032 26.4C18.8456 26.4 17.7296 26.316 16.82 26.1632C16.4147 26.1001 16.0149 26.006 15.624 25.8816C15.9664 25.6976 16.408 25.5128 16.9256 25.4304L17.6 25.3224V23.004C17.6001 22.8536 17.6425 22.7063 17.7225 22.579C17.8024 22.4516 17.9166 22.3494 18.052 22.284L18.4 22.1152V24.8C18.4 24.9591 18.4632 25.1117 18.5757 25.2243C18.6883 25.3368 18.8409 25.4 19 25.4C19.1591 25.4 19.3118 25.3368 19.4243 25.2243C19.5368 25.1117 19.6 24.9591 19.6 24.8V21.62Z" fill="#4A5C54"/>
</g>
<defs>
<clipPath id="clip0_840_11322">
<rect width="16" height="16" fill="white" transform="translate(12 12)"/>
</clipPath>
</defs>
</svg>
